<svg xmlns="http://www.w3.org/2000/svg" viewBox="0 0 1024 1024"><path d="M352 512a192 192 0 1 0 0-384 192 192 0 0 0 0 384m0 64a256 256 0 1 1 0-512 256 256 0 0 1 0 512m352-32a160 160 0 1 0 0-320 160 160 0 0 0 0 320m0 64c111.728 0 202.624 88.96 207.488 199.52a32 32 0 0 1-63.968 2.816A144 144 0 0 0 704 672a143.68 143.68 0 0 0-77.824 22.784 32 32 0 1 1-34.688-53.76A207.36 207.36 0 0 1 704 608"/><path d="M608 896v-64a128 128 0 0 0-128-128H224A128 128 0 0 0 96 832v64a32 32 0 1 1-64 0v-64a192 192 0 0 1 192-192h256a192 192 0 0 1 192 192v64a32 32 0 1 1-64 0"/></svg>
